<?xml version="1.0" encoding="iso-8859-1"?>
<!-- Uploaded to: SVG Repo, www.svgrepo.com, Generator: SVG Repo Mixer Tools -->
<svg version="1.1" id="Layer_1" xmlns="http://www.w3.org/2000/svg" xmlns:xlink="http://www.w3.org/1999/xlink" 
	 viewBox="0 0 512 512" xml:space="preserve">
<path style="fill:#8CC63F;" d="M271.999,504.161h-15.999v-48.009c0-22.102,17.916-40.018,40.018-40.018h15.999v48.009
	C312.017,486.244,294.101,504.161,271.999,504.161z"/>
<path style="fill:#009245;" d="M288.402,421.596v26.547c0,22.333-13.494,41.558-32.402,50.554v5.463
	c30.937,0,56.443-25.081,56.443-56.017v-32.01C303.035,416.134,295.719,418.131,288.402,421.596z"/>
<path style="fill:#8CC63F;" d="M238.022,504.161h17.977v-49.988c0-21.009-17.031-38.04-38.04-38.04h-17.977v49.988
	C199.982,487.13,217.013,504.161,238.022,504.161z"/>
<path style="fill:#009245;" d="M272.004,304.099c0,8.84-7.166,16.005-16.005,16.005c-8.839,0-16.005-7.166-16.005-16.005
	l16.005-32.01L272.004,304.099z"/>
<path style="fill:#8CC63F;" d="M264.002,272.088L264.002,272.088c0,30.938,25.079,56.017,56.018,56.017h48.015v-24.007
	c0-30.938-25.079-56.018-56.018-56.018h-8.002"/>
<path style="fill:#009245;" d="M312.017,247.722h-8.002l-5.162,3.415c21.772,7.681,37.631,28.561,37.631,52.962v24.106h31.357
	v-24.106C367.84,273.161,342.954,247.722,312.017,247.722z"/>
<path style="fill:#8CC63F;" d="M207.984,248.081h-8.002c-30.938,0-56.018,25.079-56.018,56.018v24.007h48.015
	c30.938,0,56.018-25.079,56.018-56.017l0,0"/>
<path style="fill:#33A86A;" d="M213.147,251.136l-5.162-3.415h-8.002c-30.937,0-55.823,25.439-55.823,56.377v24.106h31.357v-24.106
	C175.516,279.697,191.374,258.818,213.147,251.136z"/>
<path style="fill:#FFFFFF;" d="M360.032,72.026c-26.518,0-48.015,21.497-48.015,48.015v96.03c0,30.937-25.079,56.018-56.017,56.018
	l0,0c-30.937,0-56.018-25.079-56.018-56.018v-96.03c0-26.518-21.497-48.015-48.015-48.015L360.032,72.026L360.032,72.026z"/>
<path style="fill:#E6E6E6;" d="M328.022,72.122c-26.518,0-47.982,21.401-47.982,47.92v96.03c0,25.372-16.895,46.777-40.028,53.667
	c5.075,1.511,10.644,2.351,16.21,2.351c30.937,0,56.222-25.081,56.222-56.018v-96.03c0-26.518,21.072-47.92,47.59-47.92
	L328.022,72.122L328.022,72.122z"/>
<g>
	<rect x="247.638" style="fill:#FBB03B;" width="15.679" height="15.679"/>
	
		<rect x="205.748" y="22.567" transform="matrix(-0.7809 -0.6247 0.6247 -0.7809 365.6485 189.0714)" style="fill:#FBB03B;" width="20.473" height="15.679"/>
	
		<rect x="288.168" y="20.148" transform="matrix(-0.6247 -0.7808 0.7808 -0.6247 457.1985 280.5178)" style="fill:#FBB03B;" width="15.678" height="20.494"/>
</g>
<rect x="224.642" y="183.962" width="15.679" height="39.719"/>
<path style="fill:#33A86A;" d="M223.597,421.596v26.547c0,22.333,13.494,41.558,32.402,50.554v5.463
	c-30.937,0-56.443-25.081-56.443-56.017v-32.01C207.918,416.134,216.28,418.131,223.597,421.596z"/>
<path d="M315.061,240.319c3.083-7.482,4.796-15.667,4.796-24.249v-96.029c0-22.153,18.023-40.176,40.177-40.176V64.187h-91.201
	l16.061-12.799l-9.771-12.263l-11.806,9.407V24.041h-15.679v23.652l-10.775-8.603l-9.782,12.252l16.088,12.846h-91.201v15.679
	c22.153,0,40.177,18.023,40.177,40.176v96.029c0,8.581,1.712,16.767,4.796,24.249c-33.802,1.595-60.812,29.59-60.812,63.779v31.846
	h55.853c17.469,0,33.318-7.057,44.859-18.463c0.603,0.808,1.258,1.571,1.958,2.291l-13.327,19.989l13.045,8.696l9.124-13.684v88.052
	c-9.403-8.991-22.131-14.533-36.137-14.533h-19.358v51.368c0,28.859,23.479,52.338,52.338,52.338h23.036
	c28.859,0,52.338-23.479,52.338-52.338v-51.368h-19.358c-14.529,0-27.69,5.955-37.182,15.548v-90.635l10.169,15.252l13.045-8.696
	l-13.327-19.989c0.698-0.72,1.355-1.483,1.958-2.291c11.54,11.407,27.389,18.463,44.859,18.463h55.853v-31.846
	C375.874,269.909,348.863,241.914,315.061,240.319z M191.98,320.267h-40.175v-16.168c0-26.566,21.612-48.178,48.178-48.178h6.174
	c1.972,2.462,4.119,4.776,6.428,6.921l-25.308,18.982l9.407,12.543l29.281-21.961c4.34,2.324,8.975,4.162,13.837,5.437
	C236.949,301.703,216.598,320.267,191.98,320.267z M207.821,216.071v-96.029c0-15.758-6.557-30.011-17.091-40.176h130.537
	c-10.533,10.165-17.091,24.418-17.091,40.176v96.029c0,26.566-21.612,48.178-48.178,48.178
	C229.433,264.249,207.821,242.637,207.821,216.071z M244.482,496.321c-20.215,0-36.66-16.446-36.66-36.66v-35.69h3.679
	c18.124,0,33.21,13.224,36.137,30.529v41.82L244.482,496.321L244.482,496.321z M300.498,423.973h3.679v35.69
	c0,20.214-16.445,36.66-36.66,36.66h-3.679v-35.689C263.839,440.418,280.285,423.973,300.498,423.973z M264.166,303.119
	c0,4.181-3.664,8.165-8.166,8.165c-4.503,0-8.165-3.984-8.165-8.165h-0.071c3.926-7.029,6.555-14.873,7.578-23.207
	c0.221,0.002,0.438,0.017,0.66,0.017c0.222,0,0.439-0.015,0.66-0.017c1.023,8.336,3.652,16.178,7.578,23.207H264.166z
	 M360.195,320.267H320.02c-24.619,0-44.969-18.563-47.823-42.426c4.862-1.276,9.498-3.114,13.837-5.437l29.281,21.962l9.407-12.543
	l-25.308-18.982c2.309-2.145,4.456-4.459,6.428-6.921h6.174c26.566,0,48.178,21.612,48.178,48.178V320.267z"/>
</svg>